<svg viewBox="0 0 358 239" xmlns="http://www.w3.org/2000/svg"><g fill="#232323" stroke="#000" stroke-linecap="round" stroke-width="2.963"><path d="M412.8 343.04c-110.1 0-176.4-4.535-174.76-66.261 1.083-40.763 45.058-33.101 57.918-29.354.371-78.236 2.955-135.24 117.61-135.06" transform="matrix(1 0 0 1.0364 -227.975 -116.227)"/><path d="M401.23 343c110.1 0 176.4-4.535 174.76-66.261-1.083-40.763-45.058-33.101-57.918-29.354-.371-78.236-2.955-135.24-117.61-135.06" transform="matrix(1 0 0 1.0364 -227.975 -116.227)"/></g><g fill="#363636"><path d="M66.437 138.263l.187 40.406c16.231 23.25 112.28 21.625 112.28 21.625v-.031c2.118.033 96.478 1.397 112.62-21.594l.171-40.42c-21.304 22.592-110.46 22.415-112.75 22.406h-.407c-2.273.008-90.921.186-112.09-22.406l-.011.014z"/><path d="M321.757 139.103c27.862 19.648 19.957 53.492-7.008 72.929-22.546 16.252-76.405 14.978-130.88 16.324-53.769-1.348-116.6-.711-142.72-17.887-27.771-18.268-32.692-51.655-4.83-71.303-36.319 6.1-30.17 62.796-2.093 78.938 35.658 20.5 92.477 20.026 149.78 19.469 53.881.45 106.28-.215 139.88-19.531 28.076-16.141 34.194-72.838-2.125-78.938l-.004-.001z"/></g><text transform="translate(-247.694 -333.297) scale(5.42161)" text-anchor="middle" font-family="Sans-serif" font-size="9" y="84" x="78.5" stroke-linecap="round" stroke-linejoin="round" stroke-width="0" stroke="#000" fill="#fff">DEALER</text></svg>